<svg width="266" height="62" viewBox="0 0 266 62" fill="none" xmlns="http://www.w3.org/2000/svg">
<path d="M59.0842 32.0971C57.9598 29.544 56.5798 27.4283 54.9823 25.8078C53.6668 24.4733 52.2028 23.4699 50.6306 22.8245C50.2489 22.6677 49.8602 22.5327 49.468 22.4195C49.7419 22.2319 50.1104 22.032 50.6041 21.7775C51.7744 21.1741 53.1007 20.4901 53.2447 19.0575C53.3778 17.7355 52.3553 16.7496 51.5748 16.1228C49.3163 14.3094 46.2174 11.9894 42.2722 10.1331C37.7793 8.01895 33.0385 6.91867 28.1686 6.85915C28.4336 5.88454 28.3974 4.85079 28.055 3.87501C27.6087 2.60432 26.6944 1.58302 25.4805 0.99981C24.2663 0.4166 22.8979 0.341121 21.6272 0.78738C19.0038 1.7083 17.6187 4.59167 18.5396 7.21514C18.6291 7.47037 18.7384 7.71626 18.866 7.95203C17.3347 8.35122 15.871 8.85778 14.5046 9.462C11.1975 10.9237 8.43827 12.9866 6.73572 15.2704C5.1137 17.446 4.52504 19.6952 5.07791 21.6036C5.68835 23.7104 6.82637 24.8885 7.74106 25.8347C8.36785 26.4833 8.71217 26.8715 8.86119 27.2875C8.2628 27.5474 7.6792 27.8625 7.12128 28.2274C5.56113 29.248 4.19823 30.6513 3.0711 32.3986C1.70237 34.5198 0.679512 37.1585 0.0301602 40.2414C-0.0235309 40.4959 -0.00524478 40.7597 0.0826842 41.004C0.651888 42.5863 3.39247 43.6808 3.93639 43.8842C5.32263 44.4029 6.80186 44.6768 8.21495 44.6768H8.2414C8.61763 44.676 8.99191 44.6558 9.36036 44.6165C9.32184 44.7725 9.28877 44.9301 9.26037 45.0896C8.96001 46.7847 9.26543 48.5301 10.0984 49.8778C11.224 51.699 12.9005 52.8429 14.698 53.0156C14.9516 53.0401 15.2053 53.0448 15.4582 53.0304C15.2889 54.456 15.706 55.7593 16.6845 56.8367C17.6284 57.8758 19.1831 58.5548 20.8429 58.6528C21.9361 58.7174 23.0216 58.5314 24.0176 58.1124C24.2651 58.6793 24.6114 59.1909 25.0518 59.6387C25.8813 60.4818 27.0189 61.0701 28.3425 61.3393C28.867 61.4459 29.4159 61.5 29.9739 61.5C30.9874 61.5 31.9986 61.321 32.8989 60.9822C34.0929 60.5328 35.0648 59.8247 35.7309 58.9228C36.0129 58.9571 36.337 58.9874 36.7 59.0139C37.8945 59.101 39.243 59.1158 40.4973 59.0559C43.1585 58.9279 46.7878 58.4015 48.9646 56.6192C49.7303 55.9924 50.28 55.2446 50.5987 54.3972C50.9741 53.3985 51.0173 52.285 50.727 51.082C51.1391 50.7482 51.4904 50.3412 51.7744 49.8681C52.4491 48.7445 52.7506 47.3022 52.7514 45.1931V45.1923V45.1756V45.1608C52.7444 43.7068 52.2483 42.3412 51.2352 40.9861C50.7204 40.2974 50.1263 39.6854 49.5466 39.1443C52.0184 38.9731 53.9368 38.0864 55.1822 37.302C57.4237 35.8909 58.843 33.9926 59.1348 33.0954C59.2414 32.7675 59.2239 32.413 59.0846 32.0975L59.0842 32.0971Z" fill="#484037"/>
<path d="M56.8791 32.647C55.896 30.5021 54.7229 28.7307 53.3896 27.3779C52.2874 26.2597 51.0735 25.4236 49.7818 24.8937C47.6606 24.023 46.0296 24.2794 46.0137 24.2821C45.7553 24.3284 45.4908 24.2506 45.2982 24.0724C45.1056 23.8942 45.008 23.6359 45.0344 23.3748C45.1184 22.5387 44.8033 21.4948 44.1298 21.1953C42.8284 20.6159 42.1145 21.0439 40.7504 21.9878C40.2835 22.3107 39.754 22.6768 39.1576 22.9857C38.7564 23.1935 38.2627 23.0453 38.0425 22.6508C37.8223 22.2562 37.9553 21.7578 38.3429 21.5256C39.7486 20.6829 40.2477 19.9296 40.1236 18.8387C39.9081 16.9432 38.8809 16.763 38.5436 16.7039C37.6608 16.549 36.4123 16.8887 35.2035 17.6135C34.0028 18.3333 33.0119 19.3149 32.5532 20.2389C32.3711 20.6054 31.9501 20.7863 31.5591 20.6665C31.1677 20.5467 30.9206 20.1611 30.9751 19.7553C31.0914 18.8881 30.9751 17.2622 29.8032 16.6708C29.329 16.4315 28.8656 16.4463 28.3446 16.7167C26.7685 17.5353 25.4799 20.244 25.3037 21.4458C25.2484 21.8236 24.9442 22.1158 24.5649 22.1563C24.1859 22.1967 23.8264 21.9749 23.6926 21.6178C23.628 21.4454 23.5646 21.2692 23.4969 21.0828C23.1774 20.1992 22.8152 19.1974 22.3157 18.5103C21.7266 17.7007 21.1955 17.6777 20.7536 17.7621C19.9832 17.9092 19.4074 18.6231 19.0596 19.1958C17.9892 20.9603 17.6939 23.5565 18.0896 24.8747C18.2223 25.317 17.9714 25.7835 17.529 25.9162C17.0862 26.0489 16.6201 25.7979 16.4875 25.3555C16.4875 25.3555 16.4875 25.3552 16.4875 25.3548C16.2525 24.5724 15.7424 23.9491 15.1565 23.7277C14.8001 23.5931 14.4554 23.6269 14.1313 23.8285C13.4154 24.2739 12.7583 25.3645 12.666 26.2593C12.6205 26.7013 12.7108 27.0336 12.9341 27.2464C13.1843 27.4849 13.2664 27.8526 13.1341 28.1716C13.0022 28.4899 12.6944 28.6949 12.349 28.6883C12.2797 28.6891 10.3993 28.7217 8.25559 30.1574C6.97634 31.0141 5.84961 32.1988 4.90651 33.6784C3.75604 35.4837 2.87636 37.7349 2.29004 40.3739C2.63047 40.7431 3.67045 41.4823 5.30647 41.9866C6.70516 42.4177 9.43719 42.9219 12.0564 41.4738C15.3739 39.2149 15.8381 34.4531 16.061 32.1611C16.0805 31.9619 16.0988 31.7736 16.1171 31.6098C16.1676 31.1507 16.5808 30.8192 17.0403 30.8702C17.4994 30.9207 17.8305 31.3343 17.7799 31.7934C17.7628 31.9467 17.7461 32.1214 17.7262 32.3233C17.6115 33.5003 17.4197 35.4705 16.7796 37.4376C15.9863 39.8751 14.7048 41.7045 12.9703 42.8752C12.9703 42.8752 12.9695 42.876 12.9691 42.876C11.3518 43.9891 10.8725 46.8736 12.0007 48.6995C12.7555 49.9208 13.8165 50.6814 14.9117 50.7869C15.8572 50.8779 16.7649 50.4834 17.5379 49.6457C17.8379 49.3209 18.3386 49.2855 18.6814 49.5652C19.0238 49.8445 19.0899 50.3425 18.832 50.7017C18.2106 51.5665 17.8188 52.412 17.6994 53.1465C17.5621 53.9908 17.7718 54.7051 18.3398 55.3308C19.4113 56.5104 22.3149 57.0683 24.4263 55.258C24.6746 55.0452 25.0236 54.9966 25.3204 55.1331C25.6173 55.2697 25.8075 55.5665 25.8075 55.893C25.8075 56.6886 26.0978 58.5978 28.7882 59.1452C30.8101 59.5568 33.4745 58.8654 34.2534 57.031C34.3464 56.8119 34.5281 56.6431 34.7533 56.5661C34.956 56.4968 35.1766 56.5085 35.3696 56.5964C35.7618 56.7092 38.1203 56.975 40.9002 56.7905C44.1929 56.5719 46.6537 55.805 47.8291 54.6316C48.6375 53.8243 48.8663 52.7964 48.5247 51.4969C48.1006 51.5895 47.6408 51.6377 47.1451 51.6409C45.6441 51.6506 44.182 51.6728 42.7681 51.6945C40.9068 51.723 39.1486 51.7498 37.3107 51.7506C37.285 51.7506 37.2589 51.7506 37.2332 51.7506C35.3116 51.7506 33.557 51.7202 31.8711 51.6576C31.4093 51.6405 31.049 51.2522 31.0662 50.7907C31.0833 50.3289 31.4708 49.9687 31.933 49.9858C33.5982 50.0476 35.3327 50.0776 37.2332 50.0776C37.2589 50.0776 37.2842 50.0776 37.3103 50.0776C39.1358 50.0768 40.8877 50.05 42.7428 50.022C44.1602 50.0006 45.6258 49.978 47.1342 49.9683C48.9064 49.9566 49.5363 49.2473 49.8561 48.7147C50.158 48.2116 50.3514 47.5385 50.4455 46.6452C49.96 45.9652 48.2399 46.1262 47.1066 46.0967C45.8269 46.0632 41.6997 46.0189 41.5667 43.507C41.3951 40.2685 45.4814 42.7274 46.5171 42.8153C48.1131 42.9511 48.4204 42.5492 48.8216 41.9574C48.8854 41.8632 48.8982 41.7547 48.8776 41.6411C48.2746 40.9758 47.5855 40.377 46.9576 39.8311C46.5249 39.4553 46.1168 39.1005 45.7845 38.7635C44.2718 37.2291 43.4182 36.0451 42.9307 34.804C42.3421 33.3061 42.3304 31.7246 42.8942 29.9706C43.1692 29.0256 43.7493 28.2051 44.5625 27.6238C45.5211 26.9383 46.6895 26.6675 47.852 26.8608C49.0146 27.0542 50.0323 27.6888 50.7175 28.6474C51.403 29.6061 51.6738 30.7745 51.4805 31.937C51.1221 34.0928 49.2476 35.6257 47.1307 35.6257C46.891 35.6257 46.6486 35.6063 46.4047 35.5654C45.8612 35.4752 45.3492 35.288 44.8881 35.0168C45.1939 35.546 45.5888 36.0704 46.0631 36.6128C47.6081 36.9812 49.1126 37.0341 50.5374 36.768C51.747 36.542 52.9013 36.0887 53.9685 35.4203C55.5625 34.422 56.5387 33.1995 56.8795 32.6451L56.8791 32.647ZM33.1733 34.7507C32.7839 37.0929 30.7475 38.7581 28.4477 38.7581C28.1875 38.7581 27.9241 38.7367 27.6591 38.6927C25.052 38.2593 23.2837 35.7856 23.7171 33.1785C23.9272 31.9156 24.6162 30.8099 25.6577 30.0656C26.6993 29.3209 27.9684 29.0268 29.2313 29.2365C31.8384 29.6699 33.6068 32.1436 33.1733 34.7507Z" fill="#FFFDFB"/>
<path d="M45.6454 33.5198C45.9551 33.719 46.3045 33.8552 46.6784 33.9175C48.1681 34.1649 49.582 33.1545 49.8298 31.6648C49.9496 30.943 49.7816 30.2178 49.3559 29.6226C48.9303 29.0273 48.2988 28.6335 47.5771 28.5133C47.425 28.488 47.2729 28.4756 47.1219 28.4756C46.5554 28.4756 46.0049 28.6511 45.5349 28.9872C45.2789 29.1701 45.0606 29.3914 44.8848 29.6412C45.7368 29.8467 46.4165 30.5279 46.5531 31.422C46.6803 32.2538 46.3037 33.0494 45.6454 33.5194V33.5198Z" fill="#FFFDFB"/>
<path d="M28.9567 30.8869C28.7836 30.8581 28.6104 30.8438 28.4385 30.8438C27.7934 30.8438 27.1658 31.0437 26.6305 31.4262C26.3453 31.6301 26.1014 31.8759 25.9033 32.1533C27.1409 32.1199 28.2323 32.9789 28.4179 34.1936C28.582 35.267 27.9879 36.2872 27.0254 36.7432C27.304 36.8856 27.6086 36.9887 27.9331 37.0427C29.6298 37.3248 31.2401 36.1736 31.5226 34.4769C31.8047 32.7797 30.6538 31.1694 28.9567 30.8873V30.8869Z" fill="#FFFDFB"/>
<path d="M71.544 23.4979C72.136 23.4979 73.464 23.5779 74.28 23.5779C75.208 23.5779 75.784 23.6099 76.184 23.8179C76.728 24.0739 77.08 24.6179 78.072 25.8339L84.952 35.1939C85.624 36.0259 86.072 36.4259 86.152 36.4259C86.328 36.4259 86.376 36.3299 86.376 33.5619C86.376 30.4739 86.216 27.6579 85.736 26.7459C85.224 25.5299 84.136 25.3059 84.136 24.4259C84.136 23.8499 84.456 23.4979 85.272 23.4979C86.104 23.4979 87.064 23.5779 87.672 23.5779C88.392 23.5779 89.32 23.4979 90.04 23.4979C90.84 23.4979 91.128 23.8979 91.128 24.4419C91.128 25.6579 89.704 25.3859 89.512 27.7699C89.448 28.4579 89.416 30.9859 89.416 33.1139C89.432 41.1619 89.688 41.1939 89.688 43.5619C89.688 44.6659 88.648 45.5939 87.112 45.5939C86.696 45.5939 86.136 45.2419 85.608 44.6179L76.088 32.0419C75.752 31.6579 75.592 31.4339 75.464 31.4339C75.224 31.4339 75.192 31.7539 75.192 34.8739C75.192 38.3139 75.464 41.2899 75.896 42.2019C76.44 43.4819 77.528 43.6099 77.528 44.4739C77.528 45.0499 77.176 45.4179 76.376 45.4179C75.448 45.4179 74.568 45.3379 73.96 45.3379C73.224 45.3379 72.248 45.4179 71.368 45.4179C70.584 45.4179 70.264 45.0339 70.264 44.4899C70.264 43.2899 71.928 43.5619 72.12 41.1779C72.184 40.4259 72.232 37.8819 72.232 34.0099C72.232 30.6339 72.216 28.6819 72.168 28.0579C71.944 25.5299 70.392 25.6739 70.392 24.4419C70.392 23.8659 70.76 23.4979 71.544 23.4979ZM92.08 37.3539C92.08 32.2819 95.456 28.7779 100.112 28.7779C104.544 28.7779 108.512 31.9619 108.512 37.6419C108.512 43.0019 104.8 45.6579 100.304 45.6579C95.296 45.6579 92.08 42.1699 92.08 37.3539ZM99.68 31.2739C98.288 31.2739 97.024 32.4739 97.024 35.6579C97.024 37.1459 97.264 39.0499 97.936 40.5059C98.656 42.0099 99.792 42.7299 100.928 42.7299C102.4 42.7299 103.776 41.6579 103.776 38.8419C103.776 37.2099 103.344 35.1939 102.688 33.7699C101.872 32.1059 100.768 31.2739 99.68 31.2739ZM118.003 32.4739C116.723 32.4739 115.747 34.1539 115.747 35.7059V40.7299C115.747 41.9939 116.003 42.5219 116.899 43.1939C117.427 43.5939 118.339 43.7539 118.339 44.4899C118.339 45.0339 118.051 45.4179 117.107 45.4179C116.179 45.4179 115.091 45.3379 113.507 45.3379C112.419 45.3379 111.747 45.4179 110.387 45.4179C109.603 45.4179 109.347 45.0179 109.347 44.5379C109.347 43.8499 109.939 43.4979 110.243 43.1939C111.027 42.3619 111.123 41.5299 111.123 40.7139V33.8019C111.123 32.8739 110.547 32.4899 110.067 32.2819C109.731 32.0739 109.443 31.8659 109.443 31.4339C109.443 30.6179 110.435 30.4739 111.651 29.9459C113.235 29.2259 113.667 28.8739 114.227 28.8739C114.819 28.8739 115.155 29.1299 115.379 29.9459C115.507 30.5699 115.603 31.2259 115.875 31.2259C116.227 31.2259 117.763 28.7779 120.339 28.7779C121.907 28.7779 123.395 29.7059 123.395 32.2499C123.395 34.0099 122.115 35.8019 120.531 35.8019C119.475 35.8019 119.427 35.1459 119.187 34.0419C118.979 33.0339 118.563 32.4739 118.003 32.4739ZM139.499 31.3379C139.883 31.3379 141.675 28.7779 144.795 28.7779C148.235 28.7779 149.739 31.0179 149.739 34.8579C149.739 37.4979 149.339 40.2659 149.339 41.3859C149.339 42.1059 149.579 42.8419 150.075 43.2419C150.635 43.7059 151.131 43.8019 151.131 44.4899C151.131 45.0499 150.731 45.4179 149.803 45.4179C148.987 45.4179 148.219 45.3379 147.387 45.3379C146.315 45.3379 145.979 45.4179 144.971 45.4179C144.299 45.4179 144.059 45.0179 144.059 44.5379C144.059 43.9139 144.299 43.3219 144.427 42.9699C144.731 42.0579 145.067 39.1139 145.067 36.2659C145.067 33.3379 144.091 31.9939 142.443 31.9939C141.371 31.9939 139.771 33.0019 139.771 35.1939C139.771 37.8339 139.659 40.2659 139.659 41.3859C139.659 42.1059 139.771 42.8259 140.235 43.2419C140.763 43.7059 141.195 43.8019 141.195 44.4899C141.195 45.0499 140.811 45.4179 139.883 45.4179C139.051 45.4179 138.475 45.3379 137.659 45.3379C136.587 45.3379 136.251 45.4179 135.243 45.4179C134.571 45.4179 134.331 45.0179 134.331 44.5379C134.331 43.9139 134.571 43.3219 134.699 42.9699C135.003 42.0579 135.275 39.1139 135.275 36.2659C135.275 33.3379 134.331 31.9939 132.683 31.9939C131.531 31.9939 129.979 33.2579 129.979 34.9859V40.9379C129.979 42.2019 130.107 42.6819 130.555 43.1779C130.987 43.6579 131.499 43.7699 131.499 44.4899C131.499 45.0339 131.195 45.4179 130.283 45.4179C129.403 45.4179 128.619 45.3379 127.803 45.3379C126.779 45.3379 125.835 45.4179 124.715 45.4179C123.963 45.4179 123.707 45.0179 123.707 44.5379C123.707 43.8499 124.283 43.4979 124.571 43.1939C125.323 42.3619 125.435 41.5299 125.435 40.7139V33.8019C125.435 32.8739 124.907 32.5059 124.459 32.2979C124.171 32.1379 123.803 31.9299 123.803 31.4339C123.803 30.6179 124.827 30.4739 126.059 29.9459C127.627 29.2259 127.995 28.8739 128.539 28.8739C129.131 28.8739 129.483 29.1299 129.675 29.9459C129.819 30.5699 129.899 31.2259 130.139 31.2259C130.491 31.2259 132.283 28.7779 135.035 28.7779C136.667 28.7779 137.931 29.3859 138.779 30.5699C139.147 31.0339 139.291 31.3379 139.499 31.3379ZM156.521 36.6499C158.521 36.0099 160.713 35.8819 161.161 35.5459C161.353 35.4019 161.545 35.0659 161.545 34.0099C161.545 32.2499 160.777 30.8899 159.097 30.8899C157.689 30.8899 156.937 32.0099 156.521 33.5619C156.281 34.4259 155.913 35.0499 154.857 35.0499C153.769 35.0499 152.713 34.2819 152.713 32.7299C152.713 30.8099 155.033 28.7619 159.129 28.7619C163.113 28.7619 166.233 30.7139 166.233 35.1619C166.233 37.2099 166.057 39.1939 166.057 40.8259C166.057 41.4499 166.265 42.1539 166.985 42.1539C167.321 42.1539 167.481 42.0419 167.721 42.0419C167.897 42.0419 168.041 42.2819 168.041 42.6499C168.041 44.3299 166.553 45.6099 164.713 45.6099C163.209 45.6099 162.313 45.0659 161.801 44.0259C161.737 43.8819 161.641 43.7379 161.513 43.7379C161.385 43.7379 161.257 43.9139 161.129 44.0419C160.121 44.9859 158.441 45.7219 156.745 45.7219C154.041 45.7219 151.945 44.3299 151.945 41.7059C151.945 39.1779 153.721 37.5939 156.521 36.6499ZM161.577 39.2099C161.577 38.1699 161.465 37.9299 161.289 37.9299C160.361 37.9299 159.529 38.0579 158.777 38.3299C157.417 38.8099 156.649 39.7859 156.649 40.8579C156.649 41.9299 157.417 42.6499 158.585 42.6499C160.457 42.6499 161.577 41.1779 161.577 39.2099ZM175.112 22.8739C175.112 24.5699 174.968 24.7619 174.968 28.9379V40.9379C174.968 42.2019 175.224 42.6819 175.704 43.1779C176.168 43.6579 176.712 43.7699 176.712 44.4899C176.712 45.0339 176.408 45.4179 175.48 45.4179C174.648 45.4179 173.544 45.3379 172.712 45.3379C171.656 45.3379 170.744 45.4179 169.592 45.4179C168.808 45.4179 168.552 45.0179 168.552 44.5379C168.552 43.8499 169.16 43.4979 169.448 43.1939C170.248 42.3619 170.344 41.5299 170.344 40.7139V26.7619C170.344 25.9619 169.784 25.5459 169.304 25.3219C168.968 25.1299 168.648 24.9219 168.648 24.4899C168.648 23.7219 169.64 23.5779 170.872 23.0659C172.44 22.4419 173.384 21.8179 174.088 21.8179C174.712 21.8179 175.112 22.1379 175.112 22.8739ZM193.615 25.8339C192.063 25.8339 190.671 26.6819 190.671 28.2019C190.671 29.9939 193.247 30.7939 196.191 31.8499C199.487 33.0339 203.023 34.7139 203.023 38.8899C203.023 43.3859 199.567 45.8659 194.751 45.8659C192.319 45.8659 190.159 45.1139 188.959 45.1139C188.351 45.1139 187.839 45.3859 187.327 45.3859C186.191 45.3859 186.303 44.3939 185.919 41.8979C185.663 40.1219 185.519 39.4819 185.519 38.9859C185.519 38.2819 185.839 37.8659 186.271 37.8659C186.959 37.8659 187.535 38.8899 188.399 39.8659C189.727 41.3699 191.903 42.7459 194.575 42.7459C196.399 42.7459 197.647 41.8179 197.647 40.3299C197.647 38.2499 195.151 37.5459 192.495 36.6019C189.359 35.4819 185.887 33.9779 185.887 29.7699C185.887 25.7379 188.735 23.0339 193.263 23.0339C195.535 23.0339 196.911 23.8019 197.935 23.8019C198.639 23.8019 199.055 23.4659 199.695 23.4659C200.959 23.4659 200.927 24.6979 201.327 26.6019C201.807 28.8259 202.015 29.3059 202.015 29.7379C202.015 30.3939 201.631 30.7459 201.151 30.7459C200.287 30.7459 199.951 29.7699 199.119 28.8259C197.151 26.4899 195.199 25.8339 193.615 25.8339ZM220.876 36.7139C220.876 42.1699 217.596 45.6579 213.484 45.6579C211.26 45.6579 210.492 44.5699 210.156 44.5699C209.948 44.5699 209.868 44.7939 209.868 45.4499V47.4659C209.868 48.8259 210.492 49.1939 211.116 49.6579C211.644 50.0259 212.316 50.2659 212.316 50.9859C212.316 51.5459 212.012 51.9139 211.084 51.9139C210.268 51.9139 208.636 51.8339 207.74 51.8339C206.652 51.8339 205.644 51.9139 204.492 51.9139C203.708 51.9139 203.452 51.5139 203.452 51.0499C203.452 50.3459 204.044 49.9939 204.348 49.6899C205.132 48.8579 205.244 48.0419 205.244 47.2099V33.8019C205.244 32.8579 204.652 32.4899 204.172 32.2819C203.836 32.0739 203.548 31.8659 203.548 31.4339C203.548 30.6179 204.54 30.4739 205.772 29.9459C207.34 29.2259 207.772 28.8739 208.348 28.8739C208.94 28.8739 209.276 29.1299 209.5 29.9459C209.628 30.5699 209.724 31.2259 209.98 31.2259C210.348 31.2259 211.66 28.7779 214.812 28.7779C218.716 28.7779 220.876 32.0899 220.876 36.7139ZM212.86 31.9459C211.308 31.9459 209.788 33.5779 209.788 37.1619C209.788 41.9939 211.132 42.9379 212.684 42.9379C214.3 42.9379 215.9 41.4019 215.9 37.4019C215.9 33.4819 214.572 31.9459 212.86 31.9459ZM221.96 37.3539C221.96 32.2819 225.336 28.7779 229.992 28.7779C234.424 28.7779 238.392 31.9619 238.392 37.6419C238.392 43.0019 234.68 45.6579 230.184 45.6579C225.176 45.6579 221.96 42.1699 221.96 37.3539ZM229.56 31.2739C228.168 31.2739 226.904 32.4739 226.904 35.6579C226.904 37.1459 227.144 39.0499 227.816 40.5059C228.536 42.0099 229.672 42.7299 230.808 42.7299C232.28 42.7299 233.656 41.6579 233.656 38.8419C233.656 37.2099 233.224 35.1939 232.568 33.7699C231.752 32.1059 230.648 31.2739 229.56 31.2739ZM247.883 32.4739C246.603 32.4739 245.627 34.1539 245.627 35.7059V40.7299C245.627 41.9939 245.883 42.5219 246.779 43.1939C247.307 43.5939 248.219 43.7539 248.219 44.4899C248.219 45.0339 247.931 45.4179 246.987 45.4179C246.059 45.4179 244.971 45.3379 243.387 45.3379C242.299 45.3379 241.627 45.4179 240.267 45.4179C239.483 45.4179 239.227 45.0179 239.227 44.5379C239.227 43.8499 239.819 43.4979 240.123 43.1939C240.907 42.3619 241.003 41.5299 241.003 40.7139V33.8019C241.003 32.8739 240.427 32.4899 239.947 32.2819C239.611 32.0739 239.323 31.8659 239.323 31.4339C239.323 30.6179 240.315 30.4739 241.531 29.9459C243.115 29.2259 243.547 28.8739 244.107 28.8739C244.699 28.8739 245.035 29.1299 245.259 29.9459C245.387 30.5699 245.483 31.2259 245.755 31.2259C246.107 31.2259 247.643 28.7779 250.219 28.7779C251.787 28.7779 253.275 29.7059 253.275 32.2499C253.275 34.0099 251.995 35.8019 250.411 35.8019C249.355 35.8019 249.307 35.1459 249.067 34.0419C248.859 33.0339 248.443 32.4739 247.883 32.4739ZM259.955 32.5539C259.891 33.2099 259.811 36.7779 259.811 38.4419C259.811 40.2659 260.291 41.9299 262.051 41.9299C262.931 41.9299 263.539 41.4179 263.939 41.0819C264.131 40.8899 264.259 40.7939 264.435 40.7939C264.675 40.7939 264.915 40.9699 264.915 41.5619C264.915 41.8979 264.803 42.3299 264.579 42.7619C263.971 44.0099 262.387 45.6579 259.619 45.6579C256.467 45.6579 255.091 43.5299 255.091 39.8659C255.091 38.4099 255.299 35.0019 255.299 33.1619C255.299 32.5059 255.123 32.1699 254.595 32.0739C253.603 31.9619 252.995 31.8019 252.995 31.1779C252.995 30.6179 253.139 30.0739 253.747 29.7699C254.803 29.2419 255.859 28.5539 256.627 27.7859C257.907 26.4579 258.083 24.9219 259.075 24.9219C259.651 24.9219 260.099 25.3699 260.099 26.3459C260.099 27.0179 259.939 29.2099 259.939 29.3539C259.939 29.4339 259.955 29.4819 260.083 29.4819C260.403 29.4819 262.851 29.3379 263.267 29.3379C263.987 29.3379 264.419 29.5459 264.419 30.4259C264.419 31.0019 264.099 31.8019 263.763 32.1699C263.667 32.2659 263.443 32.3779 263.139 32.3779C262.787 32.3779 260.707 32.2499 260.227 32.2499C260.131 32.2499 259.971 32.2819 259.955 32.5539Z" fill="#484037"/>
</svg>
